PathFileType	4	(X/Y/Z)	/Users/visionmauri/1_7_1_f_Sports2D/1_7_1_f_Sports2D_px_person00.trc
DataRate	CameraRate	NumFrames	NumMarkers	Units	OrigDataRate	OrigDataStartFrame	OrigNumFrames
30.0	30.0	7	22	m	30.0	0	389
Frame#	Time	Hip			RHip			RKnee			RAnkle			RBigToe			RSmallToe			RHeel			LHip			LKnee			LAnkle			LBigToe			LSmallToe			LHeel			Neck			Head			Nose			RShoulder			RElbow			RWrist			LShoulder			LElbow			LWrist			
		X1	Y1	Z1	X2	Y2	Z2	X3	Y3	Z3	X4	Y4	Z4	X5	Y5	Z5	X6	Y6	Z6	X7	Y7	Z7	X8	Y8	Z8	X9	Y9	Z9	X10	Y10	Z10	X11	Y11	Z11	X12	Y12	Z12	X13	Y13	Z13	X14	Y14	Z14	X15	Y15	Z15	X16	Y16	Z16	X17	Y17	Z17	X18	Y18	Z18	X19	Y19	Z19	X20	Y20	Z20	X21	Y21	Z21	X22	Y22	Z22
0	0.0	590.0495678462203	952.8097526286613	0.0	686.8941300141246	988.0271086361098	0.0	700.1003379336015	1340.190137905674	0.0	625.2651558409917	1665.940920751793	0.0	704.5025884454386	1815.6119423946777	0.0	722.1100715272203	1815.61066826338	0.0	590.0485268423844	1714.363109648093	0.0	502.0082913843186	983.6242949039861	0.0	506.4106473204074	1278.5605300412383	0.0	519.6167137886954	1318.1625189678334	0.0	519.614652132126	1547.0867786857266	0.0	479.99812542215005	1520.6788970353202	0.0	515.2144407172441	1296.1486118471914	0.0	563.6370290805025	494.99645982424636	0.0	541.6256611723919	398.1524835962638	0.0	532.8208782160773	459.78209136810176	0.0	726.5126784558753	530.2140419703818	0.0	832.1617633718575	763.5226756051269	0.0	849.7693050085563	944.0056552400904	0.0	431.5759432331876	534.6154722400003	0.0	356.74071206233015	781.1304301648379	0.0	361.1442579209978	811.9451680629055	0.0
1	0.033419243986254295	590.1088406741796	950.898176079257	0.0	686.38690815373	985.1716797568201	0.0	701.7353179528062	1332.4471402410625	0.0	628.1962547587347	1659.6512093079145	0.0	704.0828695708004	1813.9778231803905	0.0	723.3345119215005	1810.8886851929196	0.0	593.6912797303194	1706.3999103499334	0.0	502.32436099287065	983.5911485498407	0.0	505.28434271198614	1275.5066229792371	0.0	516.270222453471	1292.150194656595	0.0	515.5853424725832	1544.3281712748321	0.0	477.8111965943326	1455.0227767462134	0.0	513.2928146695853	1307.3318491773045	0.0	562.5467996745372	496.1611088820284	0.0	540.9635281054656	399.32149066312866	0.0	529.6846715066065	462.13903806965794	0.0	724.9170478291713	527.6657609924288	0.0	832.5008553099302	764.6265838723043	0.0	848.3087013444591	942.2666883380804	0.0	429.90230309046643	535.038254161322	0.0	354.90272667740675	781.9770533519186	0.0	359.3856898420588	816.4366930666226	0.0
2	0.06683848797250859	590.3239469531268	948.6103073217168	0.0	685.7042747717949	981.7918943355832	0.0	703.1770029056831	1321.2516431245147	0.0	634.6847742969932	1649.2643397804359	0.0	702.6012880311312	1802.4388373247252	0.0	725.120199747345	1796.9429500234608	0.0	601.620415304166	1696.1538219825854	0.0	502.1062987549922	984.9666145654995	0.0	504.43424340167917	1275.2604155975457	0.0	516.151183274003	1308.2019351468582	0.0	517.9512724138954	1576.8536663533043	0.0	480.14159782434564	1473.7276880711722	0.0	515.7370089532001	1411.5043167268786	0.0	560.3146380370856	497.7621603739153	0.0	537.9582413793664	401.38373581652644	0.0	523.8351691658871	466.8406925451358	0.0	723.0518492911051	525.6920076463954	0.0	832.0034965724975	765.1617237102001	0.0	846.1813496613514	939.5979022988117	0.0	426.66075501200515	535.6038562617141	0.0	353.0811316781834	782.1558479005181	0.0	357.50272413761485	817.6862145907701	0.0
3	0.10025773195876289	590.6358311113612	947.1225380452886	0.0	685.0110831219758	978.9002223712968	0.0	702.5001087057451	1310.1841807858113	0.0	643.6190876923629	1637.3945026617873	0.0	699.2765881698547	1778.0371292298496	0.0	725.9599666506409	1772.604079829301	0.0	614.1989361200473	1686.8915073003268	0.0	501.79678710737454	986.9895123386948	0.0	504.8665034396967	1280.469816544924	0.0	519.8692307149706	1399.2310435228956	0.0	529.2261036699457	1639.9029026493176	0.0	488.12186537160665	1582.8073153065036	0.0	522.1399606988468	1576.492600024391	0.0	556.758617980966	500.06611364732504	0.0	532.2817804937008	404.3448753862658	0.0	516.5212311351783	473.9739429320755	0.0	720.357707313701	525.3590802150966	0.0	830.0806779411762	763.6058575106466	0.0	843.8813585247035	936.2322475642852	0.0	422.04048608374393	536.6623693852055	0.0	352.407735212114	781.6908579781593	0.0	356.3610352354596	814.4373232280934	0.0
4	0.13367697594501718	590.6032521752538	948.3399325454145	0.0	684.2800013553538	980.0142112241844	0.0	698.7048346302918	1303.0353256327305	0.0	651.5491940036706	1629.484349637075	0.0	693.0969570808327	1744.958305632764	0.0	723.8689861026004	1742.7673691723019	0.0	628.5926273298656	1682.6110551563372	0.0	502.33629214651666	988.5464000201116	0.0	506.9936487469658	1289.721225242513	0.0	524.4143009407674	1527.132475643234	0.0	545.0862215678702	1696.5184626520424	0.0	498.01981334314735	1691.8624200345369	0.0	526.6789157254393	1687.4082304942172	0.0	552.1779935861235	500.9302674841737	0.0	526.3514110871525	408.10782361528965	0.0	508.9923919177867	483.22004363514304	0.0	716.4375977930683	526.4125211706624	0.0	827.0024438604856	759.4372518504767	0.0	842.0537902607297	933.2720027695373	0.0	417.5932377364154	539.4368636789374	0.0	352.9909881386563	783.8756875277529	0.0	356.1720015055613	810.2891747755007	0.0
5	0.16709621993127147	589.8344167635736	951.1631436644118	0.0	683.3047309978398	985.5036006776737	0.0	693.409845146841	1297.5928586517578	0.0	657.1395897750343	1627.0360062227933	0.0	683.5095331312218	1710.7102765813213	0.0	719.1720024872195	1713.2565313082023	0.0	641.5421466567128	1683.0663466983945	0.0	503.4177709965175	988.9494356163796	0.0	509.69515707874103	1297.1684928639802	0.0	526.8636970912061	1608.0897999309698	0.0	558.1683196788448	1726.0748249487242	0.0	504.7258339731211	1735.4409722554276	0.0	525.6138964202984	1704.1021704695218	0.0	547.5417249450122	498.74840460605583	0.0	521.9012723536426	412.21543380887766	0.0	500.9146385273182	493.0779986550148	0.0	712.4841636692287	527.8234394459254	0.0	823.7425176944861	754.5074797822856	0.0	840.7892578253399	932.0735738497345	0.0	414.76788741745077	544.1370572089132	0.0	353.5106056792248	791.3003630725249	0.0	356.3408077836396	809.6422164712235	0.0
6	0.20051546391752578	589.1377785516014	950.8145702031034	0.0	682.809197588675	987.028803347417	0.0	688.328139805746	1291.4507272081942	0.0	660.9906027615845	1626.7762299696465	0.0	671.2592352706678	1682.5657314130785	0.0	713.6806103490787	1689.0740685612195	0.0	651.1313905146025	1684.7310127984533	0.0	504.0709626315736	985.8470242194942	0.0	511.95224944793415	1298.8571809282166	0.0	526.9430355848801	1623.6108794565323	0.0	564.1540785199337	1734.9854063134446	0.0	505.51280853872197	1735.4342087309556	0.0	522.2418942761656	1685.9273975945134	0.0	544.6791854008537	498.3948539967381	0.0	516.3887840828958	415.327363506824	0.0	493.6450461086888	500.0000818529486	0.0	710.1640931439103	529.8188482445853	0.0	821.2649037120166	751.2068115124403	0.0	840.2983999018256	933.0808254169775	0.0	413.6438244455146	548.2489821238521	0.0	353.5436168760736	799.4416424576638	0.0	356.5363812288406	812.8631257442389	0.0
